<svg xmlns="http://www.w3.org/2000/svg" fill="none">
	<symbol id="instagram" viewBox="0 0 18 18">
		<path fill="currentColor" d="M12.1048 2.18412C13.0482 2.18683 13.9521 2.54891 14.6192 3.19127C15.2862 3.83362 15.6622 4.70407 15.665 5.6125V12.4685C15.6622 13.377 15.2862 14.2474 14.6192 14.8898C13.9521 15.5321 13.0482 15.8942 12.1048 15.8969H4.98508C4.04172 15.8942 3.13779 15.5321 2.47073 14.8898C1.80366 14.2474 1.42766 13.377 1.42484 12.4685V5.6125C1.42766 4.70407 1.80366 3.83362 2.47073 3.19127C3.13779 2.54891 4.04172 2.18683 4.98508 2.18412H12.1048ZM12.1048 0.812988H4.98508C2.24377 0.812988 0.000976562 2.97271 0.000976562 5.6125V12.4685C0.000976562 15.1083 2.24377 17.268 4.98508 17.268H12.1048C14.8461 17.268 17.0889 15.1083 17.0889 12.4685V5.6125C17.0889 2.97271 14.8461 0.812988 12.1048 0.812988Z" />
		<path fill="currentColor" d="M13.1733 5.61255C12.962 5.61255 12.7556 5.55223 12.5799 5.43922C12.4043 5.32622 12.2674 5.16559 12.1866 4.97767C12.1057 4.78975 12.0846 4.58296 12.1258 4.38347C12.167 4.18397 12.2687 4.00072 12.4181 3.85689C12.5674 3.71306 12.7577 3.61511 12.9649 3.57543C13.1721 3.53574 13.3868 3.55611 13.582 3.63395C13.7771 3.71179 13.9439 3.84361 14.0613 4.01273C14.1786 4.18186 14.2413 4.3807 14.2413 4.5841C14.2416 4.71924 14.2142 4.85311 14.1606 4.97802C14.107 5.10292 14.0284 5.21641 13.9291 5.31197C13.8299 5.40753 13.712 5.48327 13.5823 5.53485C13.4526 5.58643 13.3136 5.61284 13.1733 5.61255ZM8.54542 6.29793C9.10873 6.29793 9.65938 6.45878 10.1277 6.76014C10.5961 7.06151 10.9612 7.48985 11.1767 7.991C11.3923 8.49215 11.4487 9.0436 11.3388 9.57562C11.2289 10.1076 10.9577 10.5963 10.5593 10.9799C10.161 11.3635 9.65354 11.6247 9.10106 11.7305C8.54858 11.8363 7.97592 11.782 7.45549 11.5744C6.93507 11.3668 6.49026 11.0153 6.1773 10.5643C5.86435 10.1133 5.69731 9.583 5.69731 9.04056C5.69811 8.31341 5.99844 7.61626 6.53239 7.10208C7.06634 6.58791 7.7903 6.29871 8.54542 6.29793ZM8.54542 4.9268C7.7005 4.9268 6.87456 5.16806 6.17204 5.62009C5.46951 6.07212 4.92196 6.7146 4.59862 7.46629C4.27529 8.21798 4.19069 9.04512 4.35552 9.84311C4.52036 10.6411 4.92723 11.3741 5.52467 11.9494C6.12212 12.5247 6.88332 12.9165 7.712 13.0753C8.54068 13.234 9.39963 13.1525 10.1802 12.8412C10.9608 12.5298 11.628 12.0025 12.0974 11.326C12.5669 10.6495 12.8174 9.85418 12.8174 9.04056C12.8174 7.94952 12.3673 6.90317 11.5662 6.13169C10.765 5.36021 9.67842 4.9268 8.54542 4.9268Z" />
	</symbol>

	<symbol id="facebook" viewBox="0 0 18 18">
  	<path fill="currentColor" fill-rule="evenodd" clip-rule="evenodd" d="M17.1768 9.08983C17.1768 4.54632 13.3511 0.862305 8.63283 0.862305C3.91458 0.862305 0.0888672 4.54632 0.0888672 9.08983C0.0888672 13.1962 3.21275 16.6 7.29784 17.2178V11.4688H5.1279V9.08983H7.29784V7.2772C7.29784 5.21555 8.57371 4.07581 10.5251 4.07581C11.46 4.07581 12.4379 4.23669 12.4379 4.23669V6.26162H11.36C10.2993 6.26162 9.96745 6.89558 9.96745 7.54717V9.08983H12.3369L11.9585 11.4688H9.96783V17.2185C14.0529 16.6011 17.1768 13.1973 17.1768 9.08983Z" />
	</symbol>

	<symbol id="twitter" viewBox="0 0 19 16">
		<path fill="currentColor" d="M18.4853 2.4523C17.7985 2.75071 17.0718 2.94731 16.3283 3.03588C17.1097 2.57831 17.6973 1.85138 17.981 0.991431C17.2422 1.42343 16.4353 1.72654 15.5948 1.88778C15.2409 1.51686 14.8152 1.22178 14.3437 1.02047C13.8722 0.819173 13.3646 0.715856 12.852 0.716803C10.7762 0.716803 9.09643 2.3722 9.09643 4.41283C9.09496 4.69667 9.12748 4.97967 9.19331 5.25578C7.70486 5.18601 6.24737 4.8063 4.91407 4.14097C3.58078 3.47564 2.40104 2.53932 1.45034 1.39193C1.11681 1.9542 0.940425 2.59573 0.939612 3.24948C0.939612 4.53107 1.60825 5.66391 2.61789 6.32759C2.01971 6.3134 1.43379 6.15508 0.909861 5.86607V5.91184C0.909861 7.70455 2.20671 9.19592 3.92313 9.53539C3.60036 9.62144 3.26775 9.66503 2.93371 9.66508C2.69669 9.66549 2.4602 9.6425 2.22769 9.59642C2.70486 11.0649 4.09363 12.1329 5.73873 12.1634C4.40197 13.1936 2.76078 13.7504 1.07311 13.7463C0.773545 13.7459 0.474258 13.7281 0.176758 13.6929C1.89363 14.7893 3.88936 15.3691 5.92639 15.3636C12.8439 15.3636 16.6231 9.72992 16.6231 4.84384C16.6231 4.68364 16.6189 4.52344 16.6113 4.36706C17.3448 3.84529 17.9794 3.19688 18.4853 2.4523Z" />
	</symbol>

	<symbol id="pintrest" viewBox="0 0 18 18">
		<path fill="currentColor" d="M9.16687 0.36084C4.37266 0.36084 0.485352 4.24641 0.485352 9.03849C0.485352 12.5909 2.62473 15.6436 5.68264 16.9878C5.65938 16.3835 5.67876 15.6552 5.83379 14.9966C6.00044 14.2916 6.94999 10.2665 6.94999 10.2665C6.94999 10.2665 6.67094 9.71255 6.67094 8.89515C6.67094 7.609 7.41507 6.64826 8.34523 6.64826C9.13587 6.64826 9.51568 7.24097 9.51568 7.94991C9.51568 8.74407 9.00797 9.9295 8.7483 11.0297C8.53126 11.9517 9.20951 12.6994 10.1203 12.6994C11.7636 12.6994 12.872 10.5881 12.872 8.0855C12.872 6.18339 11.5892 4.76165 9.25989 4.76165C6.6283 4.76165 4.98501 6.72574 4.98501 8.9184C4.98501 9.67381 5.2098 10.2084 5.55862 10.6191C5.71752 10.8089 5.74077 10.8864 5.68264 11.1033C5.64001 11.2621 5.54699 11.6457 5.50436 11.8006C5.44622 12.0214 5.26794 12.0989 5.07028 12.0176C3.85719 11.5217 3.29134 10.1968 3.29134 8.70145C3.29134 6.23762 5.37258 3.2818 9.49631 3.2818C12.81 3.2818 14.992 5.67977 14.992 8.25208C14.992 11.6573 13.0968 14.1986 10.3063 14.1986C9.36841 14.1986 8.48863 13.6911 8.18633 13.1178C8.18633 13.1178 7.68249 15.1167 7.57397 15.5041C7.39181 16.1743 7.03137 16.8406 6.70194 17.3636C7.50106 17.5992 8.32983 17.7193 9.163 17.72C13.9572 17.72 17.8445 13.8344 17.8445 9.04236C17.8445 4.25029 13.9611 0.36084 9.16687 0.36084Z" />
	</symbol>

  <symbol id="phone" fill="none" viewBox="0 0 28 28">
    <path d="M26.1943 21.3734C25.2018 20.3734 22.798 18.9141 21.6317 18.326C20.1129 17.5611 19.9879 17.4986 18.7942 18.3854C17.9979 18.9772 17.4685 19.506 16.5366 19.3072C15.6047 19.1085 13.5796 17.9879 11.8065 16.2205C10.0333 14.4531 8.84766 12.3694 8.64828 11.4407C8.4489 10.512 8.98641 9.98888 9.57268 9.19079C10.3989 8.06584 10.3364 7.87835 9.63018 6.35966C9.07954 5.17846 7.57763 2.79732 6.57385 1.80986C5.50008 0.74928 5.50008 0.936772 4.80818 1.22426C4.2449 1.46124 3.70451 1.74931 3.19377 2.08485C2.19375 2.74919 1.63873 3.30104 1.2506 4.13038C0.862464 4.95972 0.688085 6.90402 2.69251 10.5451C4.69693 14.1862 6.10322 16.048 9.01391 18.9504C11.9246 21.8527 14.1628 23.4133 17.4347 25.2482C21.4823 27.515 23.0349 27.0731 23.8668 26.6857C24.6987 26.2982 25.2531 25.7482 25.9187 24.7482C26.2551 24.2384 26.5439 23.6986 26.7812 23.1358C27.0694 22.4465 27.2569 22.4465 26.1943 21.3734Z" stroke="currentColor" stroke-width="2" stroke-miterlimit="10"/>
  </symbol>

  <symbol id="mail" fill="none" viewBox="0 0 28 22">
    <path d="M24.5059 1H3.50586C2.12515 1 1.00586 2.11929 1.00586 3.5V18.5C1.00586 19.8807 2.12515 21 3.50586 21H24.5059C25.8866 21 27.0059 19.8807 27.0059 18.5V3.5C27.0059 2.11929 25.8866 1 24.5059 1Z" stroke="currentColor" stroke-width="2" stroke-linecap="round" stroke-linejoin="round"/>
    <path d="M5.00586 5L14.0059 12L23.0059 5" stroke="currentColor" stroke-width="2" stroke-linecap="round" stroke-linejoin="round"/>
  </symbol>

  <symbol id="location" fill="none" viewBox="0 0 22 32">
    <path d="M11.0059 1C5.48503 1 1.00586 5.42738 1.00586 10.8803C1.00586 17.1546 7.67253 27.0977 10.1204 30.532C10.2221 30.677 10.3552 30.7949 10.5091 30.8763C10.663 30.9576 10.8332 31 11.0059 31C11.1785 31 11.3487 30.9576 11.5026 30.8763C11.6565 30.7949 11.7897 30.677 11.8913 30.532C14.3392 27.0991 21.0059 17.1597 21.0059 10.8803C21.0059 5.42738 16.5267 1 11.0059 1Z" stroke="currentColor" stroke-width="2" stroke-linecap="round" stroke-linejoin="round"/>
    <path d="M11.0059 16C13.215 16 15.0059 14.2091 15.0059 12C15.0059 9.79086 13.215 8 11.0059 8C8.79672 8 7.00586 9.79086 7.00586 12C7.00586 14.2091 8.79672 16 11.0059 16Z" stroke="currentColor" stroke-width="2" stroke-linecap="round" stroke-linejoin="round"/>
  </symbol>

	<symbol id="clock" fill="none" viewBox="0 0 17 16">
		<path d="M8.85968 0.899414C4.91729 0.899414 1.71875 4.09796 1.71875 8.04034C1.71875 11.9827 4.91729 15.1813 8.85968 15.1813C12.8021 15.1813 16.0006 11.9827 16.0006 8.04034C16.0006 4.09796 12.8021 0.899414 8.85968 0.899414Z" stroke="currentColor" stroke-width="1.5" stroke-miterlimit="10"/>
  	<path d="M8.85938 3.27979V8.63548H12.4298" stroke="currentColor" stroke-width="1.5" stroke-linecap="round" stroke-linejoin="round"/>
	</symbol>

	<symbol id="arrow-down" fill="none" viewBox="0 0 10 7">
		<path d="M1 1.5L5 5.5L9 1.5" stroke="currentColor" stroke-width="1.5" stroke-linecap="round" stroke-linejoin="round" />
	</symbol>

	<symbol id="play" viewBox="0 0 13 21">
		<path fill="currentColor" d="M2.43967 20.143L12.4841 11.6113C12.6459 11.4738 12.7758 11.3032 12.8648 11.1112C12.9539 10.9193 13 10.7105 13 10.4992C13 10.2879 12.9539 10.0791 12.8648 9.88717C12.7758 9.69522 12.6459 9.52462 12.4841 9.3871L2.43967 0.855357C1.48092 0.0411243 0 0.716193 0 1.96745V19.0334C0 20.2846 1.48092 20.9597 2.43967 20.143Z" />
	</symbol>

	<symbol id="user" viewBox="0 0 14 14">
		<path fill="currentColor" d="M9.57916 1.01812C8.92427 0.36156 8.00959 0 7 0C5.98503 0 5.06731 0.359373 4.41546 1.01187C3.75653 1.67155 3.43548 2.56811 3.51087 3.53623C3.66028 5.44622 5.22548 6.99996 7 6.99996C8.77452 6.99996 10.337 5.44653 10.4888 3.53685C10.5652 2.57748 10.2421 1.6828 9.57916 1.01812ZM12.9229 13.9999H1.07709C0.922035 14.0018 0.768484 13.9715 0.627605 13.9114C0.486727 13.8512 0.362063 13.7626 0.262685 13.6521C0.0439413 13.4093 -0.0442294 13.0777 0.0210573 12.7424C0.305088 11.2793 1.19151 10.0503 2.58474 9.18745C3.82249 8.42151 5.39038 7.99995 7 7.99995C8.60962 7.99995 10.1775 8.42183 11.4153 9.18745C12.8085 10.0499 13.6949 11.279 13.9789 12.7421C14.0442 13.0774 13.9561 13.409 13.7373 13.6518C13.638 13.7624 13.5133 13.851 13.3724 13.9112C13.2316 13.9715 13.078 14.0018 12.9229 13.9999Z" />
	</symbol>

	<symbol id="label" viewBox="0 0 13 13">
		<path fill="currentColor" d="M12.6227 0.38303C12.5024 0.261343 12.3591 0.164809 12.2012 0.0990497C12.0432 0.0332908 11.8737 -0.000378407 11.7026 3.20797e-06H8.13548C7.90149 0.000439477 7.67711 0.0931317 7.51103 0.257966L0.379983 7.38748C0.136657 7.6313 0 7.9617 0 8.30616C0 8.65063 0.136657 8.98102 0.379983 9.22484L3.77503 12.6199C4.01892 12.8633 4.34942 13 4.69401 13C5.0386 13 5.36911 12.8633 5.613 12.6199L12.7411 5.49324C12.9063 5.32743 12.9993 5.10311 13 4.86908V1.29997C13.001 1.12976 12.9682 0.96103 12.9035 0.803611C12.8387 0.646193 12.7433 0.503226 12.6227 0.38303ZM10.2143 3.7142C10.0306 3.7142 9.85112 3.65974 9.69842 3.55771C9.54572 3.45568 9.4267 3.31066 9.35642 3.14099C9.28614 2.97132 9.26775 2.78462 9.30358 2.6045C9.33941 2.42438 9.42785 2.25893 9.55771 2.12907C9.68757 1.99921 9.85302 1.91077 10.0331 1.87494C10.2133 1.83911 10.4 1.8575 10.5696 1.92778C10.7393 1.99806 10.8843 2.11708 10.9864 2.26978C11.0884 2.42247 11.1429 2.602 11.1429 2.78565C11.1429 3.03192 11.045 3.2681 10.8709 3.44223C10.6967 3.61637 10.4606 3.7142 10.2143 3.7142Z" />
	</symbol>

	<symbol id="security" viewBox="0 0 72 72">
		<circle fill="currentColor" cx="36" cy="36" r="36" />
		<path fill="none" d="M21.2188 33.766V23.9062C21.2188 23.5499 21.3603 23.2081 21.6123 22.9561C21.8643 22.7041 22.2061 22.5625 22.5625 22.5625H49.4375C49.7939 22.5625 50.1357 22.7041 50.3877 22.9561C50.6397 23.2081 50.7812 23.5499 50.7812 23.9062V33.766C50.7812 47.8754 38.8051 52.5449 36.4199 53.3344C36.149 53.4347 35.851 53.4347 35.5801 53.3344C33.1949 52.5449 21.2188 47.8754 21.2188 33.766Z" stroke="#ffffff" stroke-width="2" stroke-linecap="round" stroke-linejoin="round" />
		<path fill="none" d="M43.3906 31.9688L33.5309 41.375L28.6094 36.6719" stroke="#ffffff" stroke-width="2" stroke-linecap="round" stroke-linejoin="round" />
	</symbol>

	<symbol id="puzzle" viewBox="0 0 72 72">
		<circle fill="currentColor" cx="36" cy="36" r="36" />
		<path fill="none" d="M25.2503 50.7813C24.8939 50.7813 24.5521 50.6397 24.3001 50.3877C24.0481 50.1357 23.9065 49.7939 23.9065 49.4376V42.2653C23.1693 42.6169 22.3523 42.7676 21.5382 42.702C20.8488 42.6514 20.1791 42.4494 19.5767 42.1105C18.9743 41.7715 18.454 41.304 18.0528 40.7411C17.6517 40.1782 17.3795 39.5338 17.2557 38.8538C17.1319 38.1737 17.1596 37.4748 17.3367 36.8066C17.5137 36.1385 17.8359 35.5176 18.2803 34.9881C18.7246 34.4586 19.2802 34.0336 19.9075 33.7433C20.5348 33.453 21.2184 33.3045 21.9096 33.3085C22.6008 33.3124 23.2826 33.4686 23.9065 33.7661V26.5938C23.9065 26.2374 24.0481 25.8956 24.3001 25.6436C24.5521 25.3916 24.8939 25.25 25.2503 25.25H33.0944C32.7428 24.5129 32.5921 23.6958 32.6577 22.8817C32.7084 22.1923 32.9103 21.5226 33.2493 20.9202C33.5882 20.3178 34.0557 19.7975 34.6186 19.3963C35.1815 18.9952 35.8259 18.723 36.506 18.5992C37.186 18.4754 37.885 18.5031 38.5531 18.6802C39.2212 18.8572 39.8421 19.1794 40.3716 19.6238C40.9011 20.0681 41.3261 20.6237 41.6164 21.251C41.9067 21.8783 42.0552 22.5619 42.0512 23.2531C42.0473 23.9443 41.8911 24.6261 41.5937 25.25H49.4378C49.7942 25.25 50.136 25.3916 50.388 25.6436C50.64 25.8956 50.7815 26.2374 50.7815 26.5938V33.7661C50.0443 33.4144 49.2273 33.2637 48.4132 33.3293C47.7238 33.38 47.0541 33.582 46.4517 33.9209C45.8493 34.2598 45.329 34.7274 44.9278 35.2903C44.5267 35.8532 44.2545 36.4975 44.1307 37.1776C44.0069 37.8576 44.0346 38.5566 44.2117 39.2247C44.3887 39.8929 44.7109 40.5138 45.1553 41.0432C45.5996 41.5727 46.1552 41.9977 46.7825 42.288C47.4098 42.5783 48.0934 42.7268 48.7846 42.7229C49.4758 42.7189 50.1576 42.5627 50.7815 42.2653V49.4376C50.7815 49.7939 50.64 50.1357 50.388 50.3877C50.136 50.6397 49.7942 50.7813 49.4378 50.7813H25.2503Z" stroke="#ffffff" stroke-width="2" stroke-linecap="round" stroke-linejoin="round" />
	</symbol>

	<symbol id="calendar" viewBox="0 0 72 72">
		<circle fill="currentColor" cx="36" cy="36" r="36" />
		<path fill="none" d="M49.4375 21.2188H22.5625C21.8204 21.2188 21.2188 21.8204 21.2188 22.5625V49.4375C21.2188 50.1796 21.8204 50.7812 22.5625 50.7812H49.4375C50.1796 50.7812 50.7812 50.1796 50.7812 49.4375V22.5625C50.7812 21.8204 50.1796 21.2188 49.4375 21.2188Z" stroke="#ffffff" stroke-width="2" stroke-linecap="round" stroke-linejoin="round" />
		<path fill="none" d="M44.0625 18.5312V23.9062" stroke="#ffffff" stroke-width="2" stroke-linecap="round" stroke-linejoin="round" />
		<path fill="none" d="M27.9375 18.5312V23.9062" stroke="#ffffff" stroke-width="2" stroke-linecap="round" stroke-linejoin="round" />
		<path fill="none" d="M21.2188 29.2812H50.7812" stroke="#ffffff" stroke-width="2" stroke-linecap="round" stroke-linejoin="round" />
		<path fill="none" d="M29.9531 36H34.6562L31.9688 39.3594C32.411 39.3586 32.8467 39.467 33.237 39.675C33.6274 39.883 33.9604 40.1841 34.2065 40.5516C34.4525 40.9191 34.6041 41.3417 34.6477 41.7818C34.6914 42.2219 34.6257 42.666 34.4565 43.0747C34.2874 43.4834 34.02 43.844 33.678 44.1245C33.3361 44.4051 32.9302 44.5969 32.4964 44.683C32.0626 44.7691 31.6142 44.7467 31.191 44.618C30.7679 44.4892 30.3831 44.2581 30.0707 43.9449" stroke="#ffffff" stroke-width="2" stroke-linecap="round" stroke-linejoin="round" />
		<path fill="none" d="M38.6875 38.0156L41.375 36V44.7344" stroke="#ffffff" stroke-width="2" stroke-linecap="round" stroke-linejoin="round" />
	</symbol>

	<symbol id="bank" viewBox="0 0 72 72">
		<circle fill="currentColor" cx="36" cy="36" r="36" />
		<path fill="none" d="M18.125 30H53.875L36 18L18.125 30Z" stroke="#ffffff" stroke-width="2" stroke-linecap="round" stroke-linejoin="round" />
		<path fill="none" d="M23.625 30V45" stroke="#ffffff" stroke-width="2" stroke-linecap="round" stroke-linejoin="round" />
		<path fill="none" d="M31.875 30V45" stroke="#ffffff" stroke-width="2" stroke-linecap="round" stroke-linejoin="round" />
		<path fill="none" d="M40.125 30V45" stroke="#ffffff" stroke-width="2" stroke-linecap="round" stroke-linejoin="round" />
		<path fill="none" d="M48.375 30V45" stroke="#ffffff" stroke-width="2" stroke-linecap="round" stroke-linejoin="round" />
		<path fill="none" d="M19.5 45H52.5" stroke="#ffffff" stroke-width="2" stroke-linecap="round" stroke-linejoin="round" />
		<path fill="none" d="M16.75 51H55.25" stroke="#ffffff" stroke-width="2" stroke-linecap="round" stroke-linejoin="round" />
	</symbol>

	<symbol id="bar-chart" viewBox="0 0 72 72">
		<circle fill="currentColor" cx="36" cy="36" r="36" />
		<path fill="none" d="M52.5 52.5H19.5" stroke="#ffffff" stroke-width="2" stroke-linecap="round" stroke-linejoin="round"/>
		<path fill="none" d="M39 27V45C39 45.8284 39.6716 46.5 40.5 46.5H48C48.8284 46.5 49.5 45.8284 49.5 45V27C49.5 26.1716 48.8284 25.5 48 25.5H40.5C39.6716 25.5 39 26.1716 39 27Z" stroke="#ffffff" stroke-width="2" stroke-linecap="round" stroke-linejoin="round"/>
		<path fill="none" d="M31.5 18H24C23.1716 18 22.5 18.6716 22.5 19.5V45C22.5 45.8284 23.1716 46.5 24 46.5H31.5C32.3284 46.5 33 45.8284 33 45V19.5C33 18.6716 32.3284 18 31.5 18Z" stroke="#ffffff" stroke-width="2" stroke-linecap="round" stroke-linejoin="round"/>
	</symbol>

	<symbol id="script" viewBox="0 0 72 72">
		<circle fill="currentColor" cx="36" cy="36" r="36" />
		<path fill="none" d="M39.9375 20.25V29.4375H49.125" stroke="#ffffff" stroke-width="2" stroke-linecap="round" stroke-linejoin="round" />
		<path fill="none" d="M39.2812 36L43.2188 39.9375L39.2812 43.875" stroke="#ffffff" stroke-width="2" stroke-linecap="round" stroke-linejoin="round" />
		<path fill="none" d="M32.7188 36L28.7812 39.9375L32.7188 43.875" stroke="#ffffff" stroke-width="2" stroke-linecap="round" stroke-linejoin="round" />
		<path fill="none" d="M47.8125 51.75C48.1606 51.75 48.4944 51.6117 48.7406 51.3656C48.9867 51.1194 49.125 50.7856 49.125 50.4375V29.4375L39.9375 20.25H24.1875C23.8394 20.25 23.5056 20.3883 23.2594 20.6344C23.0133 20.8806 22.875 21.2144 22.875 21.5625V50.4375C22.875 50.7856 23.0133 51.1194 23.2594 51.3656C23.5056 51.6117 23.8394 51.75 24.1875 51.75H47.8125Z" stroke="#ffffff" stroke-width="2" stroke-linecap="round" stroke-linejoin="round" />
	</symbol>

	<symbol id="database" viewBox="0 0 72 72">
		<circle fill="currentColor" cx="36" cy="36" r="36" />
		<path fill="none" d="M17.625 50.4375H54.375" stroke="#ffffff" stroke-width="2" stroke-linecap="round" stroke-linejoin="round" />
		<path fill="none" d="M38.625 50.4375V21.5625C38.625 21.2144 38.4867 20.8806 38.2406 20.6344C37.9944 20.3883 37.6606 20.25 37.3125 20.25H21.5625C21.2144 20.25 20.8806 20.3883 20.6344 20.6344C20.3883 20.8806 20.25 21.2144 20.25 21.5625V50.4375" stroke="#ffffff" stroke-width="2" stroke-linecap="round" stroke-linejoin="round" />
		<path fill="none" d="M51.75 50.4375V32.0625C51.75 31.7144 51.6117 31.3806 51.3656 31.1344C51.1194 30.8883 50.7856 30.75 50.4375 30.75H38.625" stroke="#ffffff" stroke-width="2" stroke-linecap="round" stroke-linejoin="round" />
		<path fill="none" d="M25.5 26.8125H30.75" stroke="#ffffff" stroke-width="2" stroke-linecap="round" stroke-linejoin="round" />
		<path fill="none" d="M28.125 37.3125H33.375" stroke="#ffffff" stroke-width="2" stroke-linecap="round" stroke-linejoin="round" />
		<path fill="none" d="M25.5 43.875H30.75" stroke="#ffffff" stroke-width="2" stroke-linecap="round" stroke-linejoin="round" />
		<path fill="none" d="M43.875 43.875H46.5" stroke="#ffffff" stroke-width="2" stroke-linecap="round" stroke-linejoin="round" />
		<path fill="none" d="M43.875 37.3125H46.5" stroke="#ffffff" stroke-width="2" stroke-linecap="round" stroke-linejoin="round" />
	</symbol>

	<symbol id="report" viewBox="0 0 72 72">
		<circle fill="currentColor" cx="36" cy="36" r="36" />
		<path fill="none" d="M41.4997 52.12H28.6597C26.3197 52.12 24.4297 50.23 24.4297 47.89V27" stroke="#ffffff" stroke-width="2" stroke-miterlimit="10" />
		<path fill="none" d="M21.5801 19H43.2801C45.5501 19 47.4001 20.84 47.4001 23.12V32.39" stroke="#ffffff" stroke-width="2" stroke-miterlimit="10" />
		<path fill="none" d="M24.42 26.28H19V21.71C19 20.21 20.21 19 21.71 19C23.21 19 24.42 20.21 24.42 21.71V26.28Z" stroke="#ffffff" stroke-width="2" stroke-miterlimit="10" />
		<path fill="none" d="M52.3201 39.9999L51.1001 41.8199L50.6701 43.9699L48.5201 44.3999L46.7001 45.6199L44.8801 44.3999L42.7301 43.9699L42.3001 41.8199L41.0801 39.9999L42.3001 38.1799L42.7301 36.0299L44.8801 35.5999L46.7001 34.3799L48.5201 35.5999L50.6701 36.0299L51.1001 38.1799L52.3201 39.9999Z" stroke="#ffffff" stroke-width="2" stroke-miterlimit="10" />
		<path fill="none" d="M49.8104 43.8501V51.3301L46.7104 49.2501L43.6104 51.3301V43.8501" stroke="#ffffff" stroke-width="2" stroke-miterlimit="10" />
		<path fill="none" d="M30.0703 25.25H40.2803" stroke="#ffffff" stroke-width="2" stroke-miterlimit="10" />
		<path fill="none" d="M30.0703 30.5H40.2803" stroke="#ffffff" stroke-width="2" stroke-miterlimit="10" />
		<path fill="none" d="M30.0703 35.6899H40.2803" stroke="#ffffff" stroke-width="2" stroke-miterlimit="10" />
		<path fill="none" d="M30.0703 40.77H36.8403" stroke="#ffffff" stroke-width="2" stroke-miterlimit="10" />
		<path fill="none" d="M30.0703 45.96H36.8403" stroke="#ffffff" stroke-width="2" stroke-miterlimit="10" />
	</symbol>
</svg>
