<svg xmlns="http://www.w3.org/2000/svg" fill="none">
	<symbol id="instagram" viewBox="0 0 18 18">
		<path fill="currentColor" d="M12.1048 2.18412C13.0482 2.18683 13.9521 2.54891 14.6192 3.19127C15.2862 3.83362 15.6622 4.70407 15.665 5.6125V12.4685C15.6622 13.377 15.2862 14.2474 14.6192 14.8898C13.9521 15.5321 13.0482 15.8942 12.1048 15.8969H4.98508C4.04172 15.8942 3.13779 15.5321 2.47073 14.8898C1.80366 14.2474 1.42766 13.377 1.42484 12.4685V5.6125C1.42766 4.70407 1.80366 3.83362 2.47073 3.19127C3.13779 2.54891 4.04172 2.18683 4.98508 2.18412H12.1048ZM12.1048 0.812988H4.98508C2.24377 0.812988 0.000976562 2.97271 0.000976562 5.6125V12.4685C0.000976562 15.1083 2.24377 17.268 4.98508 17.268H12.1048C14.8461 17.268 17.0889 15.1083 17.0889 12.4685V5.6125C17.0889 2.97271 14.8461 0.812988 12.1048 0.812988Z" />
		<path fill="currentColor" d="M13.1733 5.61255C12.962 5.61255 12.7556 5.55223 12.5799 5.43922C12.4043 5.32622 12.2674 5.16559 12.1866 4.97767C12.1057 4.78975 12.0846 4.58296 12.1258 4.38347C12.167 4.18397 12.2687 4.00072 12.4181 3.85689C12.5674 3.71306 12.7577 3.61511 12.9649 3.57543C13.1721 3.53574 13.3868 3.55611 13.582 3.63395C13.7771 3.71179 13.9439 3.84361 14.0613 4.01273C14.1786 4.18186 14.2413 4.3807 14.2413 4.5841C14.2416 4.71924 14.2142 4.85311 14.1606 4.97802C14.107 5.10292 14.0284 5.21641 13.9291 5.31197C13.8299 5.40753 13.712 5.48327 13.5823 5.53485C13.4526 5.58643 13.3136 5.61284 13.1733 5.61255ZM8.54542 6.29793C9.10873 6.29793 9.65938 6.45878 10.1277 6.76014C10.5961 7.06151 10.9612 7.48985 11.1767 7.991C11.3923 8.49215 11.4487 9.0436 11.3388 9.57562C11.2289 10.1076 10.9577 10.5963 10.5593 10.9799C10.161 11.3635 9.65354 11.6247 9.10106 11.7305C8.54858 11.8363 7.97592 11.782 7.45549 11.5744C6.93507 11.3668 6.49026 11.0153 6.1773 10.5643C5.86435 10.1133 5.69731 9.583 5.69731 9.04056C5.69811 8.31341 5.99844 7.61626 6.53239 7.10208C7.06634 6.58791 7.7903 6.29871 8.54542 6.29793ZM8.54542 4.9268C7.7005 4.9268 6.87456 5.16806 6.17204 5.62009C5.46951 6.07212 4.92196 6.7146 4.59862 7.46629C4.27529 8.21798 4.19069 9.04512 4.35552 9.84311C4.52036 10.6411 4.92723 11.3741 5.52467 11.9494C6.12212 12.5247 6.88332 12.9165 7.712 13.0753C8.54068 13.234 9.39963 13.1525 10.1802 12.8412C10.9608 12.5298 11.628 12.0025 12.0974 11.326C12.5669 10.6495 12.8174 9.85418 12.8174 9.04056C12.8174 7.94952 12.3673 6.90317 11.5662 6.13169C10.765 5.36021 9.67842 4.9268 8.54542 4.9268Z" />
	</symbol>

	<symbol id="facebook" viewBox="0 0 18 18">
  	<path fill="currentColor" fill-rule="evenodd" clip-rule="evenodd" d="M17.1768 9.08983C17.1768 4.54632 13.3511 0.862305 8.63283 0.862305C3.91458 0.862305 0.0888672 4.54632 0.0888672 9.08983C0.0888672 13.1962 3.21275 16.6 7.29784 17.2178V11.4688H5.1279V9.08983H7.29784V7.2772C7.29784 5.21555 8.57371 4.07581 10.5251 4.07581C11.46 4.07581 12.4379 4.23669 12.4379 4.23669V6.26162H11.36C10.2993 6.26162 9.96745 6.89558 9.96745 7.54717V9.08983H12.3369L11.9585 11.4688H9.96783V17.2185C14.0529 16.6011 17.1768 13.1973 17.1768 9.08983Z" />
	</symbol>

	<symbol id="twitter" viewBox="0 0 19 16">
		<path fill="currentColor" d="M18.4853 2.4523C17.7985 2.75071 17.0718 2.94731 16.3283 3.03588C17.1097 2.57831 17.6973 1.85138 17.981 0.991431C17.2422 1.42343 16.4353 1.72654 15.5948 1.88778C15.2409 1.51686 14.8152 1.22178 14.3437 1.02047C13.8722 0.819173 13.3646 0.715856 12.852 0.716803C10.7762 0.716803 9.09643 2.3722 9.09643 4.41283C9.09496 4.69667 9.12748 4.97967 9.19331 5.25578C7.70486 5.18601 6.24737 4.8063 4.91407 4.14097C3.58078 3.47564 2.40104 2.53932 1.45034 1.39193C1.11681 1.9542 0.940425 2.59573 0.939612 3.24948C0.939612 4.53107 1.60825 5.66391 2.61789 6.32759C2.01971 6.3134 1.43379 6.15508 0.909861 5.86607V5.91184C0.909861 7.70455 2.20671 9.19592 3.92313 9.53539C3.60036 9.62144 3.26775 9.66503 2.93371 9.66508C2.69669 9.66549 2.4602 9.6425 2.22769 9.59642C2.70486 11.0649 4.09363 12.1329 5.73873 12.1634C4.40197 13.1936 2.76078 13.7504 1.07311 13.7463C0.773545 13.7459 0.474258 13.7281 0.176758 13.6929C1.89363 14.7893 3.88936 15.3691 5.92639 15.3636C12.8439 15.3636 16.6231 9.72992 16.6231 4.84384C16.6231 4.68364 16.6189 4.52344 16.6113 4.36706C17.3448 3.84529 17.9794 3.19688 18.4853 2.4523Z" />
	</symbol>

	<symbol id="pintrest" viewBox="0 0 18 18">
		<path fill="currentColor" d="M9.16687 0.36084C4.37266 0.36084 0.485352 4.24641 0.485352 9.03849C0.485352 12.5909 2.62473 15.6436 5.68264 16.9878C5.65938 16.3835 5.67876 15.6552 5.83379 14.9966C6.00044 14.2916 6.94999 10.2665 6.94999 10.2665C6.94999 10.2665 6.67094 9.71255 6.67094 8.89515C6.67094 7.609 7.41507 6.64826 8.34523 6.64826C9.13587 6.64826 9.51568 7.24097 9.51568 7.94991C9.51568 8.74407 9.00797 9.9295 8.7483 11.0297C8.53126 11.9517 9.20951 12.6994 10.1203 12.6994C11.7636 12.6994 12.872 10.5881 12.872 8.0855C12.872 6.18339 11.5892 4.76165 9.25989 4.76165C6.6283 4.76165 4.98501 6.72574 4.98501 8.9184C4.98501 9.67381 5.2098 10.2084 5.55862 10.6191C5.71752 10.8089 5.74077 10.8864 5.68264 11.1033C5.64001 11.2621 5.54699 11.6457 5.50436 11.8006C5.44622 12.0214 5.26794 12.0989 5.07028 12.0176C3.85719 11.5217 3.29134 10.1968 3.29134 8.70145C3.29134 6.23762 5.37258 3.2818 9.49631 3.2818C12.81 3.2818 14.992 5.67977 14.992 8.25208C14.992 11.6573 13.0968 14.1986 10.3063 14.1986C9.36841 14.1986 8.48863 13.6911 8.18633 13.1178C8.18633 13.1178 7.68249 15.1167 7.57397 15.5041C7.39181 16.1743 7.03137 16.8406 6.70194 17.3636C7.50106 17.5992 8.32983 17.7193 9.163 17.72C13.9572 17.72 17.8445 13.8344 17.8445 9.04236C17.8445 4.25029 13.9611 0.36084 9.16687 0.36084Z" />
	</symbol>

  <symbol id="phone" fill="none" viewBox="0 0 28 28">
    <path d="M26.1943 21.3734C25.2018 20.3734 22.798 18.9141 21.6317 18.326C20.1129 17.5611 19.9879 17.4986 18.7942 18.3854C17.9979 18.9772 17.4685 19.506 16.5366 19.3072C15.6047 19.1085 13.5796 17.9879 11.8065 16.2205C10.0333 14.4531 8.84766 12.3694 8.64828 11.4407C8.4489 10.512 8.98641 9.98888 9.57268 9.19079C10.3989 8.06584 10.3364 7.87835 9.63018 6.35966C9.07954 5.17846 7.57763 2.79732 6.57385 1.80986C5.50008 0.74928 5.50008 0.936772 4.80818 1.22426C4.2449 1.46124 3.70451 1.74931 3.19377 2.08485C2.19375 2.74919 1.63873 3.30104 1.2506 4.13038C0.862464 4.95972 0.688085 6.90402 2.69251 10.5451C4.69693 14.1862 6.10322 16.048 9.01391 18.9504C11.9246 21.8527 14.1628 23.4133 17.4347 25.2482C21.4823 27.515 23.0349 27.0731 23.8668 26.6857C24.6987 26.2982 25.2531 25.7482 25.9187 24.7482C26.2551 24.2384 26.5439 23.6986 26.7812 23.1358C27.0694 22.4465 27.2569 22.4465 26.1943 21.3734Z" stroke="currentColor" stroke-width="2" stroke-miterlimit="10"/>
  </symbol>

  <symbol id="mail" fill="none" viewBox="0 0 28 22">
    <path d="M24.5059 1H3.50586C2.12515 1 1.00586 2.11929 1.00586 3.5V18.5C1.00586 19.8807 2.12515 21 3.50586 21H24.5059C25.8866 21 27.0059 19.8807 27.0059 18.5V3.5C27.0059 2.11929 25.8866 1 24.5059 1Z" stroke="currentColor" stroke-width="2" stroke-linecap="round" stroke-linejoin="round"/>
    <path d="M5.00586 5L14.0059 12L23.0059 5" stroke="currentColor" stroke-width="2" stroke-linecap="round" stroke-linejoin="round"/>
  </symbol>

  <symbol id="location" fill="none" viewBox="0 0 22 32">
    <path d="M11.0059 1C5.48503 1 1.00586 5.42738 1.00586 10.8803C1.00586 17.1546 7.67253 27.0977 10.1204 30.532C10.2221 30.677 10.3552 30.7949 10.5091 30.8763C10.663 30.9576 10.8332 31 11.0059 31C11.1785 31 11.3487 30.9576 11.5026 30.8763C11.6565 30.7949 11.7897 30.677 11.8913 30.532C14.3392 27.0991 21.0059 17.1597 21.0059 10.8803C21.0059 5.42738 16.5267 1 11.0059 1Z" stroke="currentColor" stroke-width="2" stroke-linecap="round" stroke-linejoin="round"/>
    <path d="M11.0059 16C13.215 16 15.0059 14.2091 15.0059 12C15.0059 9.79086 13.215 8 11.0059 8C8.79672 8 7.00586 9.79086 7.00586 12C7.00586 14.2091 8.79672 16 11.0059 16Z" stroke="currentColor" stroke-width="2" stroke-linecap="round" stroke-linejoin="round"/>
  </symbol>

	<symbol id="clock" fill="none" viewBox="0 0 17 16">
		<path d="M8.85968 0.899414C4.91729 0.899414 1.71875 4.09796 1.71875 8.04034C1.71875 11.9827 4.91729 15.1813 8.85968 15.1813C12.8021 15.1813 16.0006 11.9827 16.0006 8.04034C16.0006 4.09796 12.8021 0.899414 8.85968 0.899414Z" stroke="currentColor" stroke-width="1.5" stroke-miterlimit="10"/>
  	<path d="M8.85938 3.27979V8.63548H12.4298" stroke="currentColor" stroke-width="1.5" stroke-linecap="round" stroke-linejoin="round"/>
	</symbol>

	<symbol id="arrow-down" fill="none" viewBox="0 0 10 7">
		<path d="M1 1.5L5 5.5L9 1.5" stroke="currentColor" stroke-width="1.5" stroke-linecap="round" stroke-linejoin="round" />
	</symbol>

	<symbol id="play" viewBox="0 0 13 21">
		<path fill="currentColor" d="M2.43967 20.143L12.4841 11.6113C12.6459 11.4738 12.7758 11.3032 12.8648 11.1112C12.9539 10.9193 13 10.7105 13 10.4992C13 10.2879 12.9539 10.0791 12.8648 9.88717C12.7758 9.69522 12.6459 9.52462 12.4841 9.3871L2.43967 0.855357C1.48092 0.0411243 0 0.716193 0 1.96745V19.0334C0 20.2846 1.48092 20.9597 2.43967 20.143Z" />
	</symbol>

	<symbol id="user" viewBox="0 0 14 14">
		<path fill="currentColor" d="M9.57916 1.01812C8.92427 0.36156 8.00959 0 7 0C5.98503 0 5.06731 0.359373 4.41546 1.01187C3.75653 1.67155 3.43548 2.56811 3.51087 3.53623C3.66028 5.44622 5.22548 6.99996 7 6.99996C8.77452 6.99996 10.337 5.44653 10.4888 3.53685C10.5652 2.57748 10.2421 1.6828 9.57916 1.01812ZM12.9229 13.9999H1.07709C0.922035 14.0018 0.768484 13.9715 0.627605 13.9114C0.486727 13.8512 0.362063 13.7626 0.262685 13.6521C0.0439413 13.4093 -0.0442294 13.0777 0.0210573 12.7424C0.305088 11.2793 1.19151 10.0503 2.58474 9.18745C3.82249 8.42151 5.39038 7.99995 7 7.99995C8.60962 7.99995 10.1775 8.42183 11.4153 9.18745C12.8085 10.0499 13.6949 11.279 13.9789 12.7421C14.0442 13.0774 13.9561 13.409 13.7373 13.6518C13.638 13.7624 13.5133 13.851 13.3724 13.9112C13.2316 13.9715 13.078 14.0018 12.9229 13.9999Z" />
	</symbol>

	<symbol id="label" viewBox="0 0 13 13">
		<path fill="currentColor" d="M12.6227 0.38303C12.5024 0.261343 12.3591 0.164809 12.2012 0.0990497C12.0432 0.0332908 11.8737 -0.000378407 11.7026 3.20797e-06H8.13548C7.90149 0.000439477 7.67711 0.0931317 7.51103 0.257966L0.379983 7.38748C0.136657 7.6313 0 7.9617 0 8.30616C0 8.65063 0.136657 8.98102 0.379983 9.22484L3.77503 12.6199C4.01892 12.8633 4.34942 13 4.69401 13C5.0386 13 5.36911 12.8633 5.613 12.6199L12.7411 5.49324C12.9063 5.32743 12.9993 5.10311 13 4.86908V1.29997C13.001 1.12976 12.9682 0.96103 12.9035 0.803611C12.8387 0.646193 12.7433 0.503226 12.6227 0.38303ZM10.2143 3.7142C10.0306 3.7142 9.85112 3.65974 9.69842 3.55771C9.54572 3.45568 9.4267 3.31066 9.35642 3.14099C9.28614 2.97132 9.26775 2.78462 9.30358 2.6045C9.33941 2.42438 9.42785 2.25893 9.55771 2.12907C9.68757 1.99921 9.85302 1.91077 10.0331 1.87494C10.2133 1.83911 10.4 1.8575 10.5696 1.92778C10.7393 1.99806 10.8843 2.11708 10.9864 2.26978C11.0884 2.42247 11.1429 2.602 11.1429 2.78565C11.1429 3.03192 11.045 3.2681 10.8709 3.44223C10.6967 3.61637 10.4606 3.7142 10.2143 3.7142Z" />
	</symbol>

	<symbol id="security" viewBox="0 0 43 43">
	  <path fill="none" stroke="currentColor" d="M6.71875 19.266V9.40625C6.71875 9.04987 6.86032 8.70808 7.11233 8.45608C7.36433 8.20407 7.70612 8.0625 8.0625 8.0625H34.9375C35.2939 8.0625 35.6357 8.20407 35.8877 8.45608C36.1397 8.70808 36.2812 9.04987 36.2812 9.40625V19.266C36.2812 33.3754 24.3051 38.0449 21.9199 38.8344C21.649 38.9347 21.351 38.9347 21.0801 38.8344C18.6949 38.0449 6.71875 33.3754 6.71875 19.266Z" stroke-width="2" stroke-linecap="round" stroke-linejoin="round" />
	  <path fill="none" stroke="currentColor" d="M28.8906 17.4688L19.0309 26.875L14.1094 22.1719" stroke-width="2" stroke-linecap="round" stroke-linejoin="round" />
	</symbol>

	<symbol id="puzzle" viewBox="0 0 43 43">
	  <path fill="none" stroke="currentColor" d="M10.7503 36.2813C10.3939 36.2813 10.0521 36.1397 9.80012 35.8877C9.54812 35.6357 9.40654 35.2939 9.40654 34.9376V27.7653C8.66935 28.1169 7.85232 28.2676 7.03818 28.202C6.34883 28.1514 5.67911 27.9494 5.0767 27.6105C4.47428 27.2715 3.95398 26.804 3.55282 26.2411C3.15166 25.6782 2.8795 25.0338 2.75572 24.3538C2.63193 23.6737 2.65957 22.9748 2.83665 22.3066C3.01373 21.6385 3.33591 21.0176 3.78026 20.4881C4.22461 19.9586 4.7802 19.5336 5.40749 19.2433C6.03478 18.953 6.71835 18.8045 7.40955 18.8085C8.10076 18.8124 8.78259 18.9686 9.40654 19.2661V12.0938C9.40654 11.7374 9.54812 11.3956 9.80012 11.1436C10.0521 10.8916 10.3939 10.75 10.7503 10.75H18.5944C18.2428 10.0129 18.0921 9.19583 18.1577 8.38169C18.2084 7.69234 18.4103 7.02262 18.7493 6.4202C19.0882 5.81779 19.5557 5.29749 20.1186 4.89633C20.6815 4.49516 21.3259 4.22301 22.006 4.09922C22.686 3.97544 23.385 4.00307 24.0531 4.18016C24.7212 4.35724 25.3421 4.67942 25.8716 5.12377C26.4011 5.56811 26.8261 6.1237 27.1164 6.75099C27.4067 7.37829 27.5552 8.06186 27.5512 8.75306C27.5473 9.44426 27.3911 10.1261 27.0937 10.75H34.9378C35.2942 10.75 35.636 10.8916 35.888 11.1436C36.14 11.3956 36.2815 11.7374 36.2815 12.0938V19.2661C35.5443 18.9144 34.7273 18.7637 33.9132 18.8293C33.2238 18.88 32.5541 19.082 31.9517 19.4209C31.3493 19.7598 30.829 20.2274 30.4278 20.7903C30.0267 21.3532 29.7545 21.9975 29.6307 22.6776C29.5069 23.3576 29.5346 24.0566 29.7117 24.7247C29.8887 25.3929 30.2109 26.0138 30.6553 26.5432C31.0996 27.0727 31.6552 27.4977 32.2825 27.788C32.9098 28.0783 33.5934 28.2268 34.2846 28.2229C34.9758 28.2189 35.6576 28.0627 36.2815 27.7653V34.9376C36.2815 35.2939 36.14 35.6357 35.888 35.8877C35.636 36.1397 35.2942 36.2813 34.9378 36.2813H10.7503Z" stroke-width="2" stroke-linecap="round" stroke-linejoin="round" />
	</symbol>

	<symbol id="calendar" viewBox="0 0 43 43">
    <path fill="none" stroke="currentColor" d="M34.9375 6.71875H8.0625C7.32037 6.71875 6.71875 7.32037 6.71875 8.0625V34.9375C6.71875 35.6796 7.32037 36.2812 8.0625 36.2812H34.9375C35.6796 36.2812 36.2812 35.6796 36.2812 34.9375V8.0625C36.2812 7.32037 35.6796 6.71875 34.9375 6.71875Z" stroke-width="2" stroke-linecap="round" stroke-linejoin="round" />
    <path fill="none" stroke="currentColor" d="M29.5625 4.03125V9.40625" stroke-width="2" stroke-linecap="round" stroke-linejoin="round" />
    <path fill="none" stroke="currentColor" d="M13.4375 4.03125V9.40625" stroke-width="2" stroke-linecap="round" stroke-linejoin="round" />
    <path fill="none" stroke="currentColor" d="M6.71875 14.7812H36.2812" stroke-width="2" stroke-linecap="round" stroke-linejoin="round" />
    <path fill="none" stroke="currentColor" d="M15.4531 21.5H20.1562L17.4688 24.8594C17.911 24.8586 18.3467 24.967 18.737 25.175C19.1274 25.383 19.4604 25.6841 19.7065 26.0516C19.9525 26.4191 20.1041 26.8417 20.1477 27.2818C20.1914 27.7219 20.1257 28.166 19.9565 28.5747C19.7874 28.9834 19.52 29.344 19.178 29.6245C18.8361 29.9051 18.4302 30.0969 17.9964 30.183C17.5626 30.2691 17.1142 30.2467 16.691 30.118C16.2679 29.9892 15.8831 29.7581 15.5707 29.4449" stroke-width="2" stroke-linecap="round" stroke-linejoin="round" />
    <path fill="none" stroke="currentColor" d="M24.1875 23.5156L26.875 21.5V30.2344" stroke-width="2" stroke-linecap="round" stroke-linejoin="round" />
	</symbol>

	<symbol id="bank" viewBox="0 0 44 48">
  	<path fill="none" stroke="currentColor" d="M4.125 18H39.875L22 6L4.125 18Z" stroke-width="2" stroke-linecap="round" stroke-linejoin="round" />
    <path fill="none" stroke="currentColor" d="M9.625 18V33" stroke-width="2" stroke-linecap="round" stroke-linejoin="round" />
    <path fill="none" stroke="currentColor" d="M17.875 18V33" stroke-width="2" stroke-linecap="round" stroke-linejoin="round" />
    <path fill="none" stroke="currentColor" d="M26.125 18V33" stroke-width="2" stroke-linecap="round" stroke-linejoin="round" />
    <path fill="none" stroke="currentColor" d="M34.375 18V33" stroke-width="2" stroke-linecap="round" stroke-linejoin="round" />
    <path fill="none" stroke="currentColor" d="M5.5 33H38.5" stroke-width="2" stroke-linecap="round" stroke-linejoin="round" />
    <path fill="none" stroke="currentColor" d="M2.75 39H41.25" stroke-width="2" stroke-linecap="round" stroke-linejoin="round" />
	</symbol>

	<symbol id="bar-chart" viewBox="0 0 48 48">
	  <path fill="none" stroke="currentColor" d="M40.5 40.5H7.5" stroke-width="2" stroke-linecap="round" stroke-linejoin="round" />
		<path fill="none" stroke="currentColor" d="M27 15V33C27 33.8284 27.6716 34.5 28.5 34.5H36C36.8284 34.5 37.5 33.8284 37.5 33V15C37.5 14.1716 36.8284 13.5 36 13.5H28.5C27.6716 13.5 27 14.1716 27 15Z" stroke-width="2" stroke-linecap="round" stroke-linejoin="round" />
		<path fill="none" stroke="currentColor" d="M19.5 6H12C11.1716 6 10.5 6.67157 10.5 7.5V33C10.5 33.8284 11.1716 34.5 12 34.5H19.5C20.3284 34.5 21 33.8284 21 33V7.5C21 6.67157 20.3284 6 19.5 6Z" stroke-width="2" stroke-linecap="round" stroke-linejoin="round" />
	</symbol>

	<symbol id="script" viewBox="0 0 42 42">
	  <path fill="none" stroke="currentColor" d="M24.9375 5.25V14.4375H34.125" stroke-width="2" stroke-linecap="round" stroke-linejoin="round" />
		<path fill="none" stroke="currentColor" d="M24.2812 21L28.2188 24.9375L24.2812 28.875" stroke-width="2" stroke-linecap="round" stroke-linejoin="round" />
		<path fill="none" stroke="currentColor" d="M17.7188 21L13.7812 24.9375L17.7188 28.875" stroke-width="2" stroke-linecap="round" stroke-linejoin="round" />
		<path fill="none" stroke="currentColor" d="M32.8125 36.75C33.1606 36.75 33.4944 36.6117 33.7406 36.3656C33.9867 36.1194 34.125 35.7856 34.125 35.4375V14.4375L24.9375 5.25H9.1875C8.8394 5.25 8.50556 5.38828 8.25942 5.63442C8.01328 5.88056 7.875 6.2144 7.875 6.5625V35.4375C7.875 35.7856 8.01328 36.1194 8.25942 36.3656C8.50556 36.6117 8.8394 36.75 9.1875 36.75H32.8125Z" stroke-width="2" stroke-linecap="round" stroke-linejoin="round" />
	</symbol>

	<symbol id="database" viewBox="0 0 42 42">
	  <path fill="none" stroke="currentColor" d="M2.625 35.4375H39.375" stroke-width="2" stroke-linecap="round" stroke-linejoin="round" />
		<path fill="none" stroke="currentColor" d="M23.625 35.4375V6.5625C23.625 6.2144 23.4867 5.88056 23.2406 5.63442C22.9944 5.38828 22.6606 5.25 22.3125 5.25H6.5625C6.2144 5.25 5.88056 5.38828 5.63442 5.63442C5.38828 5.88056 5.25 6.2144 5.25 6.5625V35.4375" stroke-width="2" stroke-linecap="round" stroke-linejoin="round" />
		<path fill="none" stroke="currentColor" d="M36.75 35.4375V17.0625C36.75 16.7144 36.6117 16.3806 36.3656 16.1344C36.1194 15.8883 35.7856 15.75 35.4375 15.75H23.625" stroke-width="2" stroke-linecap="round" stroke-linejoin="round" />
		<path fill="none" stroke="currentColor" d="M10.5 11.8125H15.75" stroke-width="2" stroke-linecap="round" stroke-linejoin="round" />
		<path fill="none" stroke="currentColor" d="M13.125 22.3125H18.375" stroke-width="2" stroke-linecap="round" stroke-linejoin="round" />
		<path fill="none" stroke="currentColor" d="M10.5 28.875H15.75" stroke-width="2" stroke-linecap="round" stroke-linejoin="round" />
		<path fill="none" stroke="currentColor" d="M28.875 28.875H31.5" stroke-width="2" stroke-linecap="round" stroke-linejoin="round" />
		<path fill="none" stroke="currentColor" d="M28.875 22.3125H31.5" stroke-width="2" stroke-linecap="round" stroke-linejoin="round" />
	</symbol>

	<symbol id="report" viewBox="0 0 36 36">
	  <path fill="none" stroke="currentColor" d="M23.4997 34.12H10.6597C8.31969 34.12 6.42969 32.23 6.42969 29.89V9" stroke-width="2" stroke-miterlimit="10" />
		<path fill="none" stroke="currentColor" d="M3.58008 1H25.2801C27.5501 1 29.4001 2.84 29.4001 5.12V14.39" stroke-width="2" stroke-miterlimit="10" />
		<path fill="none" stroke="currentColor" d="M6.42 8.28H1V3.71C1 2.21 2.21 1 3.71 1C5.21 1 6.42 2.21 6.42 3.71V8.28Z" stroke-width="2" stroke-miterlimit="10" />
		<path fill="none" stroke="currentColor" d="M34.3201 21.9999L33.1001 23.8199L32.6701 25.9699L30.5201 26.3999L28.7001 27.6199L26.8801 26.3999L24.7301 25.9699L24.3001 23.8199L23.0801 21.9999L24.3001 20.1799L24.7301 18.0299L26.8801 17.5999L28.7001 16.3799L30.5201 17.5999L32.6701 18.0299L33.1001 20.1799L34.3201 21.9999Z" stroke-width="2" stroke-miterlimit="10" />
		<path fill="none" stroke="currentColor" d="M31.8104 25.8501V33.3301L28.7104 31.2501L25.6104 33.3301V25.8501" stroke-width="2" stroke-miterlimit="10" />
		<path fill="none" stroke="currentColor" d="M12.0703 7.25H22.2803" stroke-width="2" stroke-miterlimit="10" />
		<path fill="none" stroke="currentColor" d="M12.0703 12.5H22.2803" stroke-width="2" stroke-miterlimit="10" />
		<path fill="none" stroke="currentColor" d="M12.0703 17.6899H22.2803" stroke-width="2" stroke-miterlimit="10" />
		<path fill="none" stroke="currentColor" d="M12.0703 22.77H18.8403" stroke-width="2" stroke-miterlimit="10" />
		<path fill="none" stroke="currentColor" d="M12.0703 27.96H18.8403" stroke-width="2" stroke-miterlimit="10" />
	</symbol>

	<symbol id="award" viewBox="0 0 42 42">
	  <path fill="none" stroke="currentColor" d="M40.6286 11.743L38.2683 14.8006L37.7749 18.6327L33.9432 19.1257L30.8856 21.4861L27.828 19.1257L23.9963 18.6327L23.5029 14.8006L21.1426 11.743L23.5029 8.68585L23.9963 4.85373L27.828 4.36077L30.8856 2L33.9432 4.36077L37.7749 4.85373L38.2683 8.68585L40.6286 11.743Z" stroke-width="2" stroke-miterlimit="10" />
		<path fill="none" stroke="currentColor" d="M36.1852 18.3203V29.8355L30.8851 26.2841L25.585 29.8355V18.3203" stroke-width="2" stroke-miterlimit="10" />
		<path fill="none" stroke="currentColor" d="M23.0052 21.5669C21.4035 23.8274 18.7679 25.2879 15.8131 25.2879C11.2148 25.2879 7.39016 21.7511 7.03047 17.167L5.99609 3.96826H21.907" stroke-width="2" stroke-miterlimit="10" />
		<path fill="none" stroke="currentColor" d="M6.78963 17.1896H4.58176C3.50185 17.1896 2.59239 16.3817 2.46539 15.3093L1.13231 8.99438C0.981917 7.72689 1.97243 6.6123 3.24869 6.6123H6.19432" stroke-width="2" stroke-miterlimit="10" />
		<path fill="none" stroke="currentColor" d="M17.9834 24.854C17.9834 24.854 18.4463 30.2089 21.2227 32.5884" stroke-width="2" stroke-miterlimit="10" />
		<path fill="none" stroke="currentColor" d="M13.796 24.854C13.796 24.854 13.3331 30.2089 10.5566 32.5884" stroke-width="2" stroke-miterlimit="10" />
		<path fill="none" stroke="currentColor" d="M24.088 36.8744H7.69336V34.4614C7.69336 33.2743 8.5811 32.3123 9.67647 32.3123H22.1045C23.1998 32.3123 24.0876 33.2743 24.0876 34.4614V36.8744H24.088Z" stroke-width="2" stroke-miterlimit="10" />
		<path fill="none" stroke="currentColor" d="M25.9604 40.1697H5.81934V39.0234C5.81934 37.8363 6.70708 36.8743 7.80245 36.8743H23.9773C25.0727 36.8743 25.9604 37.8363 25.9604 39.0234V40.1697V40.1697Z" stroke-width="2" stroke-miterlimit="10" />
		<path fill="none" stroke="currentColor" d="M5.81983 40.1697H25.9609V39.0234C25.9609 37.8363 25.0732 36.8743 23.9778 36.8743H7.80295C6.70758 36.8743 5.81983 37.8363 5.81983 39.0234V40.1697V40.1697Z" stroke-width="2" stroke-miterlimit="10" />
		<path fill="none" stroke="currentColor" d="M26.7539 13.8181L29.2659 15.6692L35.2817 8.00073" stroke-width="2" stroke-miterlimit="10" />
	</symbol>

	<symbol id="star" viewBox="0 0 15 14">
	  <path fill="#ffb342" d="M6.27631 0.508955C6.65882 -0.16969 7.6361 -0.169691 8.01861 0.508953L9.62067 3.35128C9.76337 3.60446 10.0092 3.78303 10.294 3.84051L13.4923 4.48583C14.2559 4.63991 14.5579 5.56935 14.0307 6.14286L11.8226 8.54483C11.6259 8.75878 11.532 9.04772 11.5654 9.33642L11.9399 12.5776C12.0294 13.3514 11.2388 13.9259 10.5304 13.6017L7.56362 12.2438C7.29936 12.1229 6.99556 12.1229 6.7313 12.2438L3.76453 13.6017C3.05617 13.9259 2.26554 13.3514 2.35498 12.5776L2.72957 9.33642C2.76293 9.04772 2.66905 8.75878 2.47236 8.54483L0.26421 6.14286C-0.263017 5.56935 0.0389769 4.63991 0.802609 4.48583L4.00089 3.84051C4.28577 3.78303 4.53155 3.60446 4.67425 3.35128L6.27631 0.508955Z" />
	</symbol>

	<symbol id="star-rating" viewBox="0 0 120 20">
    <path fill="#ffa722" d="M9.19467 0.617552C9.46221 -0.205851 10.6271 -0.20585 10.8946 0.617553L12.6532 6.02974C12.7728 6.39798 13.116 6.64729 13.5032 6.64729H19.1939C20.0597 6.64729 20.4196 7.75518 19.7192 8.26407L15.1153 11.609C14.8021 11.8366 14.671 12.24 14.7906 12.6082L16.5492 18.0204C16.8167 18.8438 15.8743 19.5285 15.1739 19.0196L10.57 15.6747C10.2567 15.4471 9.83258 15.4471 9.51934 15.6747L4.91545 19.0196C4.21502 19.5285 3.27261 18.8438 3.54015 18.0204L5.29867 12.6082C5.41832 12.24 5.28725 11.8366 4.97401 11.609L0.370122 8.26407C-0.330307 7.75518 0.0296666 6.64729 0.895444 6.64729H6.58616C6.97334 6.64729 7.3165 6.39798 7.43614 6.02974L9.19467 0.617552Z" />
    <path fill="#ffa722" d="M58.7934 0.723587C59.0551 -0.111772 60.2373 -0.11177 60.4991 0.72359L62.1587 6.02079C62.2755 6.39358 62.6209 6.64731 63.0116 6.64731H68.4497C69.3076 6.64731 69.6727 7.73859 68.9875 8.25484L64.5327 11.6113C64.2308 11.8388 64.1047 12.2316 64.2177 12.5923L65.906 17.9807C66.1657 18.8098 65.2093 19.4845 64.5153 18.9617L60.184 15.6983C59.8656 15.4584 59.4268 15.4584 59.1084 15.6983L54.7771 18.9617C54.0831 19.4845 53.1267 18.8098 53.3864 17.9807L55.0747 12.5923C55.1877 12.2316 55.0616 11.8388 54.7597 11.6113L50.3049 8.25484C49.6197 7.73859 49.9848 6.64731 50.8427 6.64731H56.2808C56.6715 6.64731 57.0169 6.39358 57.1337 6.02079L58.7934 0.723587Z" />
    <path fill="#ffa722" d="M108.399 0.617552C108.666 -0.205851 109.831 -0.20585 110.099 0.617553L111.857 6.02974C111.977 6.39798 112.32 6.64729 112.707 6.64729H118.398C119.264 6.64729 119.624 7.75518 118.923 8.26407L114.319 11.609C114.006 11.8366 113.875 12.24 113.995 12.6082L115.753 18.0204C116.021 18.8438 115.078 19.5285 114.378 19.0196L109.774 15.6747C109.461 15.4471 109.037 15.4471 108.723 15.6747L104.12 19.0196C103.419 19.5285 102.477 18.8438 102.744 18.0204L104.503 12.6082C104.622 12.24 104.491 11.8366 104.178 11.609L99.5742 8.26407C98.8738 7.75518 99.2338 6.64729 100.1 6.64729H105.79C106.177 6.64729 106.521 6.39798 106.64 6.02974L108.399 0.617552Z" />
    <path fill="#ffa722" d="M34.2191 0.617552C34.4866 -0.205851 35.6515 -0.20585 35.9191 0.617553L37.6776 6.02974C37.7972 6.39798 38.1404 6.64729 38.5276 6.64729H44.2183C45.0841 6.64729 45.444 7.75518 44.7436 8.26407L40.1397 11.609C39.8265 11.8366 39.6954 12.24 39.8151 12.6082L41.5736 18.0204C41.8411 18.8438 40.8987 19.5285 40.1983 19.0196L35.5944 15.6747C35.2812 15.4471 34.857 15.4471 34.5438 15.6747L29.9399 19.0196C29.2394 19.5285 28.297 18.8438 28.5646 18.0204L30.3231 12.6082C30.4427 12.24 30.3117 11.8366 29.9984 11.609L25.3945 8.26407C24.6941 7.75518 25.0541 6.64729 25.9199 6.64729H31.6106C31.9978 6.64729 32.3409 6.39798 32.4606 6.02974L34.2191 0.617552Z" />
    <path fill="#ffa722" d="M83.3744 0.617552C83.6419 -0.205851 84.8068 -0.20585 85.0743 0.617553L86.8329 6.02974C86.9525 6.39798 87.2957 6.64729 87.6828 6.64729H93.3736C94.2393 6.64729 94.5993 7.75518 93.8989 8.26407L89.295 11.609C88.9818 11.8366 88.8507 12.24 88.9703 12.6082L90.7289 18.0204C90.9964 18.8438 90.054 19.5285 89.3536 19.0196L84.7497 15.6747C84.4364 15.4471 84.0123 15.4471 83.699 15.6747L79.0951 19.0196C78.3947 19.5285 77.4523 18.8438 77.7198 18.0204L79.4784 12.6082C79.598 12.24 79.4669 11.8366 79.1537 11.609L74.5498 8.26407C73.8494 7.75518 74.2094 6.64729 75.0751 6.64729H80.7658C81.153 6.64729 81.4962 6.39798 81.6158 6.02974L83.3744 0.617552Z" />
	</symbol>

	<symbol id="tick-circle" viewBox="0 0 27 27">
	  <path fill="currentColor" d="M13.5 0C6.05618 0 0 6.05618 0 13.5C0 20.9438 6.05618 27 13.5 27C20.9438 27 27 20.9438 27 13.5C27 6.05618 20.9438 0 13.5 0ZM11.0337 20.2747L5.8024 14.4612L7.34647 13.0716L10.9811 17.11L19.601 6.84476L21.1937 8.17789L11.0337 20.2747Z" />
	</symbol>
</svg>
