<svg width="21" height="20" viewBox="0 0 21 20" fill="none" xmlns="http://www.w3.org/2000/svg">
<path d="M9.19467 0.617552C9.46221 -0.205851 10.6271 -0.20585 10.8946 0.617553L12.6532 6.02974C12.7728 6.39798 13.116 6.64729 13.5032 6.64729H19.1939C20.0597 6.64729 20.4196 7.75518 19.7192 8.26407L15.1153 11.609C14.8021 11.8366 14.671 12.24 14.7906 12.6082L16.5492 18.0204C16.8167 18.8438 15.8743 19.5285 15.1739 19.0196L10.57 15.6747C10.2567 15.4471 9.83258 15.4471 9.51934 15.6747L4.91545 19.0196C4.21502 19.5285 3.27261 18.8438 3.54015 18.0204L5.29867 12.6082C5.41832 12.24 5.28725 11.8366 4.97401 11.609L0.370122 8.26407C-0.330307 7.75518 0.0296666 6.64729 0.895444 6.64729H6.58616C6.97334 6.64729 7.3165 6.39798 7.43614 6.02974L9.19467 0.617552Z" fill="#FFA722"/>
</svg>
