<svg width="15" height="14" viewBox="0 0 15 14" fill="none" xmlns="http://www.w3.org/2000/svg">
<path d="M6.27631 0.508955C6.65882 -0.16969 7.6361 -0.169691 8.01861 0.508953L9.62067 3.35128C9.76337 3.60446 10.0092 3.78303 10.294 3.84051L13.4923 4.48583C14.2559 4.63991 14.5579 5.56935 14.0307 6.14286L11.8226 8.54483C11.6259 8.75878 11.532 9.04772 11.5654 9.33642L11.9399 12.5776C12.0294 13.3514 11.2388 13.9259 10.5304 13.6017L7.56362 12.2438C7.29936 12.1229 6.99556 12.1229 6.7313 12.2438L3.76453 13.6017C3.05617 13.9259 2.26554 13.3514 2.35498 12.5776L2.72957 9.33642C2.76293 9.04772 2.66905 8.75878 2.47236 8.54483L0.26421 6.14286C-0.263017 5.56935 0.0389769 4.63991 0.802609 4.48583L4.00089 3.84051C4.28577 3.78303 4.53155 3.60446 4.67425 3.35128L6.27631 0.508955Z" fill="#FFB342"/>
</svg>
